<svg id="visual" viewBox="0 0 960 400" width="960" height="400" xmlns="http://www.w3.org/2000/svg" xmlns:xlink="http://www.w3.org/1999/xlink" version="1.1"><path d="M0 128L22.8 123.3C45.7 118.7 91.3 109.3 137 113.5C182.7 117.7 228.3 135.3 274 135.2C319.7 135 365.3 117 411.2 116.8C457 116.7 503 134.3 548.8 144.3C594.7 154.3 640.3 156.7 686 153.3C731.7 150 777.3 141 823 141.3C868.7 141.7 914.3 151.3 937.2 156.2L960 161L960 0L937.2 0C914.3 0 868.7 0 823 0C777.3 0 731.7 0 686 0C640.3 0 594.7 0 548.8 0C503 0 457 0 411.2 0C365.3 0 319.7 0 274 0C228.3 0 182.7 0 137 0C91.3 0 45.7 0 22.8 0L0 0Z" fill="#ffffff"></path><path d="M0 112L22.8 112.3C45.7 112.7 91.3 113.3 137 106.5C182.7 99.7 228.3 85.3 274 78.3C319.7 71.3 365.3 71.7 411.2 77.8C457 84 503 96 548.8 97.3C594.7 98.7 640.3 89.3 686 90.2C731.7 91 777.3 102 823 101.2C868.7 100.3 914.3 87.7 937.2 81.3L960 75L960 0L937.2 0C914.3 0 868.7 0 823 0C777.3 0 731.7 0 686 0C640.3 0 594.7 0 548.8 0C503 0 457 0 411.2 0C365.3 0 319.7 0 274 0C228.3 0 182.7 0 137 0C91.3 0 45.7 0 22.8 0L0 0Z" fill="#c3e0ec"></path><path d="M0 91L22.8 84.7C45.7 78.3 91.3 65.7 137 62.5C182.7 59.3 228.3 65.7 274 67.3C319.7 69 365.3 66 411.2 68.8C457 71.7 503 80.3 548.8 81.8C594.7 83.3 640.3 77.7 686 77.5C731.7 77.3 777.3 82.7 823 80C868.7 77.3 914.3 66.7 937.2 61.3L960 56L960 0L937.2 0C914.3 0 868.7 0 823 0C777.3 0 731.7 0 686 0C640.3 0 594.7 0 548.8 0C503 0 457 0 411.2 0C365.3 0 319.7 0 274 0C228.3 0 182.7 0 137 0C91.3 0 45.7 0 22.8 0L0 0Z" fill="#83c2da"></path><path d="M0 29L22.8 27.7C45.7 26.3 91.3 23.7 137 24.7C182.7 25.7 228.3 30.3 274 31.2C319.7 32 365.3 29 411.2 31.3C457 33.7 503 41.3 548.8 45.5C594.7 49.7 640.3 50.3 686 45.8C731.7 41.3 777.3 31.7 823 28.2C868.7 24.7 914.3 27.3 937.2 28.7L960 30L960 0L937.2 0C914.3 0 868.7 0 823 0C777.3 0 731.7 0 686 0C640.3 0 594.7 0 548.8 0C503 0 457 0 411.2 0C365.3 0 319.7 0 274 0C228.3 0 182.7 0 137 0C91.3 0 45.7 0 22.8 0L0 0Z" fill="#24a4c7"></path></svg>