<svg id="visual" viewBox="0 0 960 400" width="960" height="400" xmlns="http://www.w3.org/2000/svg" xmlns:xlink="http://www.w3.org/1999/xlink" version="1.1"><path d="M0 245L22.8 250.8C45.7 256.7 91.3 268.3 137 277.3C182.7 286.3 228.3 292.7 274 291.7C319.7 290.7 365.3 282.3 411.2 276.2C457 270 503 266 548.8 260C594.7 254 640.3 246 686 253.5C731.7 261 777.3 284 823 286.5C868.7 289 914.3 271 937.2 262L960 253L960 401L937.2 401C914.3 401 868.7 401 823 401C777.3 401 731.7 401 686 401C640.3 401 594.7 401 548.8 401C503 401 457 401 411.2 401C365.3 401 319.7 401 274 401C228.3 401 182.7 401 137 401C91.3 401 45.7 401 22.8 401L0 401Z" fill="#ffffff"></path><path d="M0 293L22.8 294C45.7 295 91.3 297 137 301.2C182.7 305.3 228.3 311.7 274 316.5C319.7 321.3 365.3 324.7 411.2 317.3C457 310 503 292 548.8 287.2C594.7 282.3 640.3 290.7 686 298.3C731.7 306 777.3 313 823 313C868.7 313 914.3 306 937.2 302.5L960 299L960 401L937.2 401C914.3 401 868.7 401 823 401C777.3 401 731.7 401 686 401C640.3 401 594.7 401 548.8 401C503 401 457 401 411.2 401C365.3 401 319.7 401 274 401C228.3 401 182.7 401 137 401C91.3 401 45.7 401 22.8 401L0 401Z" fill="#c3e0ec"></path><path d="M0 326L22.8 326.3C45.7 326.7 91.3 327.3 137 332.5C182.7 337.7 228.3 347.3 274 343.8C319.7 340.3 365.3 323.7 411.2 321.3C457 319 503 331 548.8 338.2C594.7 345.3 640.3 347.7 686 343.5C731.7 339.3 777.3 328.7 823 321.7C868.7 314.7 914.3 311.3 937.2 309.7L960 308L960 401L937.2 401C914.3 401 868.7 401 823 401C777.3 401 731.7 401 686 401C640.3 401 594.7 401 548.8 401C503 401 457 401 411.2 401C365.3 401 319.7 401 274 401C228.3 401 182.7 401 137 401C91.3 401 45.7 401 22.8 401L0 401Z" fill="#83c2da"></path><path d="M0 357L22.8 359.8C45.7 362.7 91.3 368.3 137 365.7C182.7 363 228.3 352 274 352.5C319.7 353 365.3 365 411.2 365.3C457 365.7 503 354.3 548.8 354.2C594.7 354 640.3 365 686 369.8C731.7 374.7 777.3 373.3 823 368.2C868.7 363 914.3 354 937.2 349.5L960 345L960 401L937.2 401C914.3 401 868.7 401 823 401C777.3 401 731.7 401 686 401C640.3 401 594.7 401 548.8 401C503 401 457 401 411.2 401C365.3 401 319.7 401 274 401C228.3 401 182.7 401 137 401C91.3 401 45.7 401 22.8 401L0 401Z" fill="#24a4c7"></path></svg>